<svg width="38" height="36" viewBox="0 0 38 36" fill="none" xmlns="http://www.w3.org/2000/svg">
<path d="M21.8573 2.875C21.8573 1.35391 20.5805 0.125 19.0001 0.125C17.4198 0.125 16.143 1.35391 16.143 2.875V15.25H3.28585C1.7055 15.25 0.428711 16.4789 0.428711 18C0.428711 19.5211 1.7055 20.75 3.28585 20.75H16.143V33.125C16.143 34.6461 17.4198 35.875 19.0001 35.875C20.5805 35.875 21.8573 34.6461 21.8573 33.125V20.75H34.7144C36.2948 20.75 37.5716 19.5211 37.5716 18C37.5716 16.4789 36.2948 15.25 34.7144 15.25H21.8573V2.875Z" fill="black"/>
</svg>
