<svg width="26" height="33" viewBox="0 0 26 33" fill="none" xmlns="http://www.w3.org/2000/svg">
<path d="M18.4381 1.20972L15.9776 4.3324L22.5863 12.7198L25.0468 9.5971C26.3177 7.98414 26.3177 5.37115 25.0468 3.75819L23.0439 1.20972C21.7729 -0.403239 19.7141 -0.403239 18.4431 1.20972H18.4381ZM14.8287 5.79052L2.97867 20.8362C2.44997 21.5072 2.06361 22.3395 1.8501 23.2492L0.0504842 31.0107C-0.0766072 31.5591 0.0403169 32.1462 0.355503 32.5462C0.67069 32.9463 1.1333 33.0947 1.56033 32.9398L7.67597 30.6559C8.39276 30.3849 9.04855 29.8946 9.57725 29.2236L21.4374 14.1779L14.8287 5.79052Z" fill="black"/>
</svg>
