<svg width="29" height="35" viewBox="0 0 29 35" fill="none" xmlns="http://www.w3.org/2000/svg">
<path d="M8.75179 1.20996L8.28572 2.1875H2.07143C0.92567 2.1875 0 3.16504 0 4.375C0 5.58496 0.92567 6.5625 2.07143 6.5625H26.9286C28.0743 6.5625 29 5.58496 29 4.375C29 3.16504 28.0743 2.1875 26.9286 2.1875H20.7143L20.2482 1.20996C19.8987 0.464844 19.1801 0 18.3969 0H10.6031C9.81987 0 9.10134 0.464844 8.75179 1.20996ZM26.9286 8.75H2.07143L3.44375 31.9238C3.54732 33.6533 4.9067 35 6.54442 35H22.4556C24.0933 35 25.4527 33.6533 25.5563 31.9238L26.9286 8.75Z" fill="black"/>
</svg>
